<svg width="100" height="100" viewBox="0 0 100 100" fill="none" xmlns="http://www.w3.org/2000/svg">
<circle cx="50" cy="50" r="50" fill="#3AAAA7"/>
<g clip-path="url(#clip0_268_487)">
<path d="M58.7872 50.7245C58.8576 36.9827 58.7872 31.5135 58.7872 31.5135C58.7872 31.5135 54.9535 28.71 59.6288 21.3465C60.7885 20.5668 61.5908 21.3465 61.5908 21.3465C61.5908 21.3465 65.8946 27.6573 62.362 31.7218C62.7139 37.6807 62.5027 50.7216 62.5027 50.7216C62.5027 50.7216 65.0276 50.5105 65.2359 52.7539C65.4442 54.9973 63.1333 54.8566 63.1333 55.2788C63.1333 55.701 64.4647 58.7832 64.8869 60.047C65.3091 61.3109 65.1937 76.2433 65.25 77.434C65.25 80.3782 55.9809 80.6288 55.9809 77.434C55.7782 72.3871 55.8401 61.1673 55.9809 60.2553C56.1216 59.3433 57.5572 56.1542 57.8386 55.3126C55.4545 55.138 55.8261 53.1395 55.8514 52.7173C55.8767 52.2951 56.1554 50.5443 58.7844 50.7188L58.7872 50.7245Z" fill="white"/>
<path d="M50.8407 26.2777C50.655 24.876 48.5045 21.5095 47.1027 21.5095C47.4771 29.4556 47.1646 31.5526 45.1408 31.5132C44.2063 31.5132 43.0832 31.6061 39.9982 31.5132C36.9132 31.4203 37.569 25.4361 37.569 21C37.569 21 35.7929 21.791 34.3911 25.9034C32.8008 34.9248 36.4938 36.8416 38.4106 37.6832C38.5964 39.085 37.5775 74.7174 38.1292 78.1627C39.6238 81.9964 45.4223 81.9007 46.6354 78.1627V37.4947C52.8055 34.784 50.8435 26.2749 50.8435 26.2749L50.8407 26.2777ZM42.5681 78.4892C41.4084 78.4892 40.4682 77.5491 40.4682 76.3894C40.4682 75.2297 41.4084 74.2896 42.5681 74.2896C43.7278 74.2896 44.6679 75.2297 44.6679 76.3894C44.6679 77.5491 43.7278 78.4892 42.5681 78.4892Z" fill="white"/>
</g>
<defs>
<clipPath id="clip0_268_487">
<rect width="31.2498" height="60" fill="white" transform="translate(34 21)"/>
</clipPath>
</defs>
</svg>
