<svg width="100" height="100" viewBox="0 0 100 100" fill="none" xmlns="http://www.w3.org/2000/svg">
<circle cx="50" cy="50" r="50" fill="#3AAAA7"/>
<g clip-path="url(#clip0_268_472)">
<path d="M21.978 57.1731C22.7794 54.5343 25.5385 45.3351 25.7381 44.5338C25.9377 43.7325 26.5776 43.2129 27.737 43.1748C28.8965 43.1366 46.4553 43.2159 46.8956 43.1748C47.057 43.4536 50.1743 50.375 50.1743 50.375L48.1754 60.1348L21.978 57.176V57.1731Z" fill="white"/>
<path d="M57.4921 61.0108L53.4121 60.6117L54.2516 56.8516C54.2516 56.8516 55.8924 59.5315 57.4921 61.0108Z" fill="white"/>
<path d="M20.6983 62.373L47.1363 65.414L44.7353 77.0025H18.8579C18.2591 77.0025 16.765 76.0514 17.0321 74.4928C17.2993 72.9342 20.6983 62.373 20.6983 62.373Z" fill="white"/>
<path d="M49.9751 76.9997L52.3762 65.8516L80.6399 68.9307C80.6399 68.9307 82.0665 74.1848 82.1927 74.4754C82.3718 75.8609 81.7583 76.715 80.6928 76.9997H49.9751Z" fill="white"/>
<path d="M71.3057 62.5065L79.1458 63.4135L76.7741 55.4941C76.7741 55.4941 72.1892 62.1866 71.3086 62.5065H71.3057Z" fill="white"/>
<path d="M65.7315 17.012C56.7731 16.6862 48.5338 23.0176 47.7324 34.4563C48.4516 48.6161 61.7895 62.274 64.3109 64.9715C64.3109 64.9715 64.9537 65.491 65.6494 64.9715C67.7451 62.8727 81.7288 46.3736 82.1867 35.7361C82.6505 25.0957 74.6929 17.3378 65.7315 17.012ZM65.1415 44.9441C59.1917 44.9441 54.3661 40.1185 54.3661 34.1687C54.3661 28.2189 59.1917 23.3933 65.1415 23.3933C71.0914 23.3933 75.917 28.2189 75.917 34.1687C75.917 40.1185 71.0914 44.9441 65.1415 44.9441Z" fill="white"/>
</g>
<defs>
<clipPath id="clip0_268_472">
<rect width="65.2219" height="60" fill="white" transform="translate(17 17)"/>
</clipPath>
</defs>
</svg>
