<svg width="100" height="100" viewBox="0 0 100 100" fill="none" xmlns="http://www.w3.org/2000/svg">
<circle cx="50" cy="50" r="50" fill="#3AAAA7"/>
<path d="M53.0074 79.9999L18 45.3796C18 45.3796 18.0669 42.8498 20.0112 44.5142C32.0167 40.785 28.9982 26.4033 42.881 21.4766C45.0947 23.6078 49.0073 27.2824 49.5204 28.0677C49.2081 28.7781 43.7528 32.1955 41.4052 31.7969C40.4665 30.7986 37.0464 28.8667 35.9053 33.7935C36.9778 37.722 43.5503 50.0389 43.5503 51.1037C42.8416 52.027 39.7938 58.0952 34.7641 59.1599C35.9705 61.3575 52.5664 76.5706 53.9444 78.4002C53.9444 78.4002 55.2864 79.9982 53.0057 79.9982L53.0074 79.9999Z" fill="white"/>
<path d="M58.1056 77.9351C55.9589 73.6744 37.8511 33.7935 37.8511 33.7935C37.8511 33.7935 37.8339 32.6112 39.0249 32.6776C39.6358 32.8463 39.749 33.4323 39.9979 33.7594C51.353 34.5924 57.747 18.7474 69.4161 20.0796C71.6968 23.9859 76.9719 36.9468 77.9998 38.4102C65.7489 39.032 61.1448 51.3711 48.7154 52.7016C49.6987 54.8328 59.3206 75.7341 59.8474 77.0697C60.0259 78.8448 58.1039 77.9351 58.1039 77.9351H58.1056Z" fill="white"/>
</svg>
