<svg width="297" height="51" viewBox="0 0 297 51" fill="none" xmlns="http://www.w3.org/2000/svg">
<path d="M23.552 50C22.1867 50 21.184 49.296 20.544 47.888L1.792 5.008C1.19467 3.55733 1.13067 2.36266 1.6 1.424C2.06933 0.485331 2.96533 0.0159988 4.288 0.0159988C5.78133 0.0159988 6.80533 0.677331 7.36 2L23.808 41.488H23.104L39.872 2C40.2133 1.232 40.5973 0.719999 41.024 0.463997C41.4933 0.165332 42.112 0.0159988 42.88 0.0159988C44.16 0.0159988 45.0347 0.485331 45.504 1.424C46.016 2.32 46.016 3.32266 45.504 4.432L26.56 47.888C26.2613 48.5707 25.856 49.104 25.344 49.488C24.8747 49.8293 24.2773 50 23.552 50ZM61.053 50.256C57.5117 50.256 54.3543 49.5093 51.581 48.016C48.8503 46.48 46.6957 44.3893 45.117 41.744C43.581 39.056 42.813 35.984 42.813 32.528C42.813 29.0293 43.5383 25.9573 44.989 23.312C46.4823 20.624 48.5303 18.5333 51.133 17.04C53.7357 15.504 56.7223 14.736 60.093 14.736C63.421 14.736 66.2797 15.4827 68.669 16.976C71.0583 18.4267 72.8717 20.4533 74.109 23.056C75.389 25.616 76.029 28.5813 76.029 31.952C76.029 32.7627 75.7517 33.4453 75.197 34C74.6423 34.512 73.9383 34.768 73.085 34.768H47.293V29.648H72.893L70.269 31.44C70.2263 29.3067 69.7997 27.408 68.989 25.744C68.1783 24.0373 67.0263 22.6933 65.533 21.712C64.0397 20.7307 62.2263 20.24 60.093 20.24C57.661 20.24 55.5703 20.7733 53.821 21.84C52.1143 22.9067 50.813 24.3787 49.917 26.256C49.021 28.0907 48.573 30.1813 48.573 32.528C48.573 34.8747 49.1063 36.9653 50.173 38.8C51.2397 40.6347 52.7117 42.0853 54.589 43.152C56.4663 44.2187 58.621 44.752 61.053 44.752C62.3757 44.752 63.7197 44.5173 65.085 44.048C66.493 43.536 67.6237 42.96 68.477 42.32C69.117 41.8507 69.7997 41.616 70.525 41.616C71.293 41.5733 71.9543 41.7867 72.509 42.256C73.2343 42.896 73.6183 43.6 73.661 44.368C73.7037 45.136 73.3623 45.7973 72.637 46.352C71.1863 47.504 69.373 48.4427 67.197 49.168C65.0637 49.8933 63.0157 50.256 61.053 50.256ZM91.395 50C89.5177 50 87.8537 49.488 86.403 48.464C84.9523 47.44 83.8217 46.0533 83.011 44.304C82.2003 42.512 81.795 40.464 81.795 38.16V3.216C81.795 2.27733 82.0937 1.50933 82.691 0.911999C83.2883 0.314665 84.0563 0.0159988 84.995 0.0159988C85.9337 0.0159988 86.7017 0.314665 87.299 0.911999C87.8963 1.50933 88.195 2.27733 88.195 3.216V38.16C88.195 39.7387 88.4937 41.04 89.091 42.064C89.6883 43.088 90.4563 43.6 91.395 43.6H92.995C93.8483 43.6 94.531 43.8987 95.043 44.496C95.5977 45.0933 95.875 45.8613 95.875 46.8C95.875 47.7387 95.4697 48.5067 94.659 49.104C93.8483 49.7013 92.803 50 91.523 50H91.395ZM114.917 50.256C111.461 50.256 108.41 49.5093 105.765 48.016C103.12 46.48 101.029 44.3893 99.493 41.744C97.9997 39.056 97.253 35.984 97.253 32.528C97.253 29.0293 97.9997 25.9573 99.493 23.312C101.029 20.624 103.12 18.5333 105.765 17.04C108.41 15.504 111.461 14.736 114.917 14.736C118.33 14.736 121.36 15.504 124.005 17.04C126.65 18.5333 128.72 20.624 130.213 23.312C131.749 25.9573 132.517 29.0293 132.517 32.528C132.517 35.984 131.77 39.056 130.277 41.744C128.784 44.3893 126.714 46.48 124.069 48.016C121.424 49.5093 118.373 50.256 114.917 50.256ZM114.917 44.496C117.136 44.496 119.098 43.984 120.805 42.96C122.512 41.936 123.834 40.528 124.773 38.736C125.754 36.944 126.245 34.8747 126.245 32.528C126.245 30.1813 125.754 28.112 124.773 26.32C123.834 24.4853 122.512 23.056 120.805 22.032C119.098 21.008 117.136 20.496 114.917 20.496C112.698 20.496 110.736 21.008 109.029 22.032C107.322 23.056 105.978 24.4853 104.997 26.32C104.016 28.112 103.525 30.1813 103.525 32.528C103.525 34.8747 104.016 36.944 104.997 38.736C105.978 40.528 107.322 41.936 109.029 42.96C110.736 43.984 112.698 44.496 114.917 44.496Z" fill="#FFC80F"/>
<path d="M152.217 50C151.449 50 150.766 49.7653 150.169 49.296C149.571 48.8267 149.145 48.1867 148.889 47.376L136.025 4.624C135.598 3.216 135.619 2.10666 136.089 1.296C136.601 0.442665 137.411 0.0159988 138.521 0.0159988C139.246 0.0159988 139.907 0.229332 140.505 0.655998C141.102 1.04 141.529 1.65866 141.785 2.512L152.985 41.552H151.577L161.945 2.896C162.115 2.256 162.499 1.72266 163.097 1.296C163.694 0.869331 164.377 0.655998 165.145 0.655998C165.827 0.655998 166.467 0.847998 167.065 1.232C167.705 1.57333 168.11 2.10667 168.281 2.832L178.713 41.552H177.433L188.697 2.192C189.123 0.741332 190.211 0.0159988 191.961 0.0159988C193.155 0.0159988 193.923 0.485331 194.265 1.424C194.606 2.32 194.606 3.38666 194.265 4.624L181.401 47.312C181.102 48.1227 180.654 48.784 180.057 49.296C179.502 49.7653 178.841 50 178.073 50C177.262 50 176.558 49.744 175.961 49.232C175.406 48.72 175.001 48.1013 174.745 47.376L164.441 7.568H165.977L155.545 47.312C155.246 48.1227 154.798 48.784 154.201 49.296C153.646 49.7653 152.985 50 152.217 50ZM207.265 50.256C204.15 50.256 201.355 49.488 198.881 47.952C196.406 46.3733 194.443 44.2613 192.993 41.616C191.585 38.928 190.881 35.8987 190.881 32.528C190.881 29.1573 191.649 26.128 193.185 23.44C194.763 20.752 196.875 18.64 199.521 17.104C202.209 15.5253 205.217 14.736 208.545 14.736C211.873 14.736 214.859 15.5253 217.505 17.104C220.15 18.64 222.241 20.752 223.777 23.44C225.355 26.128 226.145 29.1573 226.145 32.528H223.649C223.649 35.8987 222.923 38.928 221.473 41.616C220.065 44.2613 218.123 46.3733 215.649 47.952C213.174 49.488 210.379 50.256 207.265 50.256ZM208.545 44.496C210.721 44.496 212.662 43.984 214.369 42.96C216.075 41.8933 217.419 40.464 218.401 38.672C219.382 36.8373 219.873 34.7893 219.873 32.528C219.873 30.224 219.382 28.176 218.401 26.384C217.419 24.5493 216.075 23.12 214.369 22.096C212.662 21.0293 210.721 20.496 208.545 20.496C206.411 20.496 204.47 21.0293 202.721 22.096C201.014 23.12 199.649 24.5493 198.625 26.384C197.643 28.176 197.153 30.224 197.153 32.528C197.153 34.7893 197.643 36.8373 198.625 38.672C199.649 40.464 201.014 41.8933 202.721 42.96C204.47 43.984 206.411 44.496 208.545 44.496ZM222.881 50.064C221.942 50.064 221.153 49.7653 220.513 49.168C219.915 48.528 219.617 47.7387 219.617 46.8V37.008L220.833 30.224L226.145 32.528V46.8C226.145 47.7387 225.825 48.528 225.185 49.168C224.587 49.7653 223.819 50.064 222.881 50.064ZM244.483 49.936C243.16 49.936 242.136 49.232 241.411 47.824L227.843 19.216C227.501 18.4907 227.459 17.7867 227.715 17.104C228.013 16.3787 228.568 15.824 229.379 15.44C230.104 15.056 230.829 14.992 231.555 15.248C232.323 15.504 232.899 15.9947 233.283 16.72L245.955 44.048H242.883L255.427 16.72C255.811 15.9947 256.387 15.504 257.155 15.248C257.965 14.992 258.776 15.056 259.587 15.44C260.355 15.7813 260.867 16.3147 261.123 17.04C261.379 17.7653 261.336 18.4907 260.995 19.216L247.427 47.824C246.787 49.232 245.805 49.936 244.483 49.936ZM281.623 50.256C278.082 50.256 274.924 49.5093 272.151 48.016C269.42 46.48 267.266 44.3893 265.687 41.744C264.151 39.056 263.383 35.984 263.383 32.528C263.383 29.0293 264.108 25.9573 265.559 23.312C267.052 20.624 269.1 18.5333 271.703 17.04C274.306 15.504 277.292 14.736 280.663 14.736C283.991 14.736 286.85 15.4827 289.239 16.976C291.628 18.4267 293.442 20.4533 294.679 23.056C295.959 25.616 296.599 28.5813 296.599 31.952C296.599 32.7627 296.322 33.4453 295.767 34C295.212 34.512 294.508 34.768 293.655 34.768H267.863V29.648H293.463L290.839 31.44C290.796 29.3067 290.37 27.408 289.559 25.744C288.748 24.0373 287.596 22.6933 286.103 21.712C284.61 20.7307 282.796 20.24 280.663 20.24C278.231 20.24 276.14 20.7733 274.391 21.84C272.684 22.9067 271.383 24.3787 270.487 26.256C269.591 28.0907 269.143 30.1813 269.143 32.528C269.143 34.8747 269.676 36.9653 270.743 38.8C271.81 40.6347 273.282 42.0853 275.159 43.152C277.036 44.2187 279.191 44.752 281.623 44.752C282.946 44.752 284.29 44.5173 285.655 44.048C287.063 43.536 288.194 42.96 289.047 42.32C289.687 41.8507 290.37 41.616 291.095 41.616C291.863 41.5733 292.524 41.7867 293.079 42.256C293.804 42.896 294.188 43.6 294.231 44.368C294.274 45.136 293.932 45.7973 293.207 46.352C291.756 47.504 289.943 48.4427 287.767 49.168C285.634 49.8933 283.586 50.256 281.623 50.256Z" fill="#474748"/>
</svg>
